<mxfile host="app.diagrams.net" agent="Mozilla/5.0 (Macintosh; Intel Mac OS X 10_15_7) AppleWebKit/605.1.15 (KHTML, like Gecko) Version/18.5 Safari/605.1.15" version="27.1.1">
  <diagram name="Page-1" id="Dpn0jNLxXfaoNnfGJ1rZ">
    <mxGraphModel dx="1018" dy="725" grid="1" gridSize="10" guides="1" tooltips="1" connect="1" arrows="1" fold="1" page="1" pageScale="1" pageWidth="850" pageHeight="1100" math="0" shadow="0">
      <root>
        <mxCell id="0" />
        <mxCell id="1" parent="0" />
        <mxCell id="V3tWYPrJEWUXQkAfdmBx-1" value="&amp;lt;&amp;lt;iot-sensor&amp;gt;&amp;gt;" style="verticalAlign=top;align=left;spacingTop=8;spacingLeft=2;spacingRight=12;shape=cube;size=10;direction=south;fontStyle=4;html=1;whiteSpace=wrap;" vertex="1" parent="1">
          <mxGeometry x="110" y="120" width="530" height="350" as="geometry" />
        </mxCell>
        <mxCell id="V3tWYPrJEWUXQkAfdmBx-6" value="&lt;div&gt;&amp;lt;&amp;lt;container&amp;gt;&amp;gt;&lt;/div&gt;" style="verticalAlign=top;align=left;spacingTop=8;spacingLeft=2;spacingRight=12;shape=cube;size=10;direction=south;fontStyle=4;html=1;whiteSpace=wrap;" vertex="1" parent="1">
          <mxGeometry x="290" y="160" width="310" height="210" as="geometry" />
        </mxCell>
        <mxCell id="V3tWYPrJEWUXQkAfdmBx-7" value="&amp;lt;&amp;lt;execution environment&amp;gt;&amp;gt;&lt;div&gt;Spring Boot&lt;/div&gt;" style="verticalAlign=top;align=left;spacingTop=8;spacingLeft=2;spacingRight=12;shape=cube;size=10;direction=south;fontStyle=4;html=1;whiteSpace=wrap;" vertex="1" parent="1">
          <mxGeometry x="320" y="200" width="240" height="150" as="geometry" />
        </mxCell>
        <mxCell id="V3tWYPrJEWUXQkAfdmBx-8" value="«component»&lt;br&gt;&lt;b&gt;collector&lt;/b&gt;" style="html=1;dropTarget=0;whiteSpace=wrap;" vertex="1" parent="1">
          <mxGeometry x="360" y="250" width="150" height="80" as="geometry" />
        </mxCell>
        <mxCell id="V3tWYPrJEWUXQkAfdmBx-9" value="" style="shape=module;jettyWidth=8;jettyHeight=4;" vertex="1" parent="V3tWYPrJEWUXQkAfdmBx-8">
          <mxGeometry x="1" width="20" height="20" relative="1" as="geometry">
            <mxPoint x="-27" y="7" as="offset" />
          </mxGeometry>
        </mxCell>
        <mxCell id="V3tWYPrJEWUXQkAfdmBx-15" value="iot-system-prod" style="verticalAlign=top;align=left;spacingTop=8;spacingLeft=2;spacingRight=12;shape=cube;size=10;direction=south;fontStyle=4;html=1;whiteSpace=wrap;" vertex="1" parent="1">
          <mxGeometry x="805" y="112" width="935" height="758" as="geometry" />
        </mxCell>
        <mxCell id="V3tWYPrJEWUXQkAfdmBx-17" value="&amp;lt;&amp;lt;execution environment&amp;gt;&amp;gt;&lt;div&gt;containerd&lt;/div&gt;&lt;div&gt;&lt;br&gt;&lt;/div&gt;" style="verticalAlign=top;align=left;spacingTop=8;spacingLeft=2;spacingRight=12;shape=cube;size=10;direction=south;fontStyle=4;html=1;whiteSpace=wrap;" vertex="1" parent="1">
          <mxGeometry x="880" y="700" width="215" height="150" as="geometry" />
        </mxCell>
        <mxCell id="V3tWYPrJEWUXQkAfdmBx-21" style="edgeStyle=orthogonalEdgeStyle;rounded=0;orthogonalLoop=1;jettySize=auto;html=1;exitX=0;exitY=0;exitDx=90;exitDy=70;exitPerimeter=0;entryX=0;entryY=0.5;entryDx=0;entryDy=0;dashed=1;endArrow=open;endFill=0;" edge="1" parent="1" source="V3tWYPrJEWUXQkAfdmBx-18" target="V3tWYPrJEWUXQkAfdmBx-20">
          <mxGeometry relative="1" as="geometry" />
        </mxCell>
        <mxCell id="V3tWYPrJEWUXQkAfdmBx-18" value="&amp;lt;&amp;lt;device-iot&amp;gt;&amp;gt;" style="verticalAlign=top;align=left;spacingTop=8;spacingLeft=2;spacingRight=12;shape=cube;size=10;direction=south;fontStyle=4;html=1;whiteSpace=wrap;" vertex="1" parent="1">
          <mxGeometry x="130" y="230" width="130" height="90" as="geometry" />
        </mxCell>
        <mxCell id="V3tWYPrJEWUXQkAfdmBx-19" style="edgeStyle=orthogonalEdgeStyle;rounded=0;orthogonalLoop=1;jettySize=auto;html=1;exitX=0.5;exitY=1;exitDx=0;exitDy=0;entryX=0.829;entryY=0.387;entryDx=0;entryDy=0;entryPerimeter=0;endArrow=none;startFill=0;" edge="1" parent="1" source="V3tWYPrJEWUXQkAfdmBx-8" target="V3tWYPrJEWUXQkAfdmBx-1">
          <mxGeometry relative="1" as="geometry" />
        </mxCell>
        <mxCell id="V3tWYPrJEWUXQkAfdmBx-20" value="API" style="ellipse;whiteSpace=wrap;html=1;aspect=fixed;" vertex="1" parent="1">
          <mxGeometry x="420" y="410" width="30" height="30" as="geometry" />
        </mxCell>
        <mxCell id="V3tWYPrJEWUXQkAfdmBx-22" value="&amp;lt;&amp;lt;execution environment&amp;gt;&amp;gt;&lt;div&gt;containerd&lt;/div&gt;" style="verticalAlign=top;align=left;spacingTop=8;spacingLeft=2;spacingRight=12;shape=cube;size=10;direction=south;fontStyle=4;html=1;whiteSpace=wrap;" vertex="1" parent="1">
          <mxGeometry x="885" y="172" width="210" height="165" as="geometry" />
        </mxCell>
        <mxCell id="V3tWYPrJEWUXQkAfdmBx-27" style="edgeStyle=orthogonalEdgeStyle;rounded=0;orthogonalLoop=1;jettySize=auto;html=1;exitX=0.5;exitY=1;exitDx=0;exitDy=0;endArrow=block;endFill=1;dashed=1;" edge="1" parent="1" source="V3tWYPrJEWUXQkAfdmBx-23" target="V3tWYPrJEWUXQkAfdmBx-25">
          <mxGeometry relative="1" as="geometry" />
        </mxCell>
        <mxCell id="V3tWYPrJEWUXQkAfdmBx-23" value="«component»&lt;br&gt;&lt;b&gt;pulsar-broker&lt;/b&gt;" style="html=1;dropTarget=0;whiteSpace=wrap;" vertex="1" parent="1">
          <mxGeometry x="915" y="237" width="140" height="70" as="geometry" />
        </mxCell>
        <mxCell id="V3tWYPrJEWUXQkAfdmBx-24" value="" style="shape=module;jettyWidth=8;jettyHeight=4;" vertex="1" parent="V3tWYPrJEWUXQkAfdmBx-23">
          <mxGeometry x="1" width="20" height="20" relative="1" as="geometry">
            <mxPoint x="-27" y="7" as="offset" />
          </mxGeometry>
        </mxCell>
        <mxCell id="V3tWYPrJEWUXQkAfdmBx-25" value="«component»&lt;br&gt;«apache/pulsar»&lt;br&gt;&lt;div&gt;broker&lt;br&gt;&lt;/div&gt;" style="html=1;dropTarget=0;whiteSpace=wrap;" vertex="1" parent="1">
          <mxGeometry x="915" y="362" width="140" height="70" as="geometry" />
        </mxCell>
        <mxCell id="V3tWYPrJEWUXQkAfdmBx-26" value="" style="shape=module;jettyWidth=8;jettyHeight=4;" vertex="1" parent="V3tWYPrJEWUXQkAfdmBx-25">
          <mxGeometry x="1" width="20" height="20" relative="1" as="geometry">
            <mxPoint x="-27" y="7" as="offset" />
          </mxGeometry>
        </mxCell>
        <mxCell id="V3tWYPrJEWUXQkAfdmBx-28" style="edgeStyle=orthogonalEdgeStyle;rounded=0;orthogonalLoop=1;jettySize=auto;html=1;exitX=0;exitY=0;exitDx=100;exitDy=0;exitPerimeter=0;entryX=0;entryY=0;entryDx=87.5;entryDy=210;entryPerimeter=0;endArrow=none;startFill=0;" edge="1" parent="1" source="V3tWYPrJEWUXQkAfdmBx-6" target="V3tWYPrJEWUXQkAfdmBx-22">
          <mxGeometry relative="1" as="geometry" />
        </mxCell>
        <mxCell id="V3tWYPrJEWUXQkAfdmBx-30" value="pulsar.proto (binary)" style="edgeLabel;html=1;align=center;verticalAlign=middle;resizable=0;points=[];" vertex="1" connectable="0" parent="V3tWYPrJEWUXQkAfdmBx-28">
          <mxGeometry x="-0.0057" relative="1" as="geometry">
            <mxPoint as="offset" />
          </mxGeometry>
        </mxCell>
        <mxCell id="V3tWYPrJEWUXQkAfdmBx-31" value="«component»&lt;div&gt;&lt;br&gt;&lt;b&gt;Spring Boot&amp;nbsp;&lt;/b&gt;&lt;/div&gt;&lt;div&gt;&lt;b&gt;info-service&lt;/b&gt;&lt;/div&gt;" style="html=1;dropTarget=0;whiteSpace=wrap;" vertex="1" parent="1">
          <mxGeometry x="910" y="750" width="145" height="70" as="geometry" />
        </mxCell>
        <mxCell id="V3tWYPrJEWUXQkAfdmBx-32" value="" style="shape=module;jettyWidth=8;jettyHeight=4;" vertex="1" parent="V3tWYPrJEWUXQkAfdmBx-31">
          <mxGeometry x="1" width="20" height="20" relative="1" as="geometry">
            <mxPoint x="-27" y="7" as="offset" />
          </mxGeometry>
        </mxCell>
        <mxCell id="V3tWYPrJEWUXQkAfdmBx-33" value="GraphQL REST API" style="ellipse;whiteSpace=wrap;html=1;aspect=fixed;" vertex="1" parent="1">
          <mxGeometry x="730" y="760" width="30" height="30" as="geometry" />
        </mxCell>
        <mxCell id="V3tWYPrJEWUXQkAfdmBx-34" style="edgeStyle=orthogonalEdgeStyle;rounded=0;orthogonalLoop=1;jettySize=auto;html=1;exitX=1;exitY=0.5;exitDx=0;exitDy=0;entryX=0;entryY=0;entryDx=80;entryDy=215;entryPerimeter=0;endArrow=none;startFill=0;" edge="1" parent="1" source="V3tWYPrJEWUXQkAfdmBx-33" target="V3tWYPrJEWUXQkAfdmBx-17">
          <mxGeometry relative="1" as="geometry" />
        </mxCell>
        <mxCell id="V3tWYPrJEWUXQkAfdmBx-35" value="&amp;lt;&amp;lt;execution environment&amp;gt;&amp;gt;&lt;div&gt;containerd&lt;/div&gt;" style="verticalAlign=top;align=left;spacingTop=8;spacingLeft=2;spacingRight=12;shape=cube;size=10;direction=south;fontStyle=4;html=1;whiteSpace=wrap;" vertex="1" parent="1">
          <mxGeometry x="1500" y="172" width="200" height="140" as="geometry" />
        </mxCell>
        <mxCell id="V3tWYPrJEWUXQkAfdmBx-43" style="edgeStyle=orthogonalEdgeStyle;rounded=0;orthogonalLoop=1;jettySize=auto;html=1;exitX=0.5;exitY=1;exitDx=0;exitDy=0;endArrow=block;endFill=1;dashed=1;" edge="1" parent="1" source="V3tWYPrJEWUXQkAfdmBx-36" target="V3tWYPrJEWUXQkAfdmBx-38">
          <mxGeometry relative="1" as="geometry" />
        </mxCell>
        <mxCell id="V3tWYPrJEWUXQkAfdmBx-36" value="«component»&lt;br&gt;&lt;b&gt;postgresql&lt;/b&gt;" style="html=1;dropTarget=0;whiteSpace=wrap;" vertex="1" parent="1">
          <mxGeometry x="1535" y="227" width="130" height="65" as="geometry" />
        </mxCell>
        <mxCell id="V3tWYPrJEWUXQkAfdmBx-37" value="" style="shape=module;jettyWidth=8;jettyHeight=4;" vertex="1" parent="V3tWYPrJEWUXQkAfdmBx-36">
          <mxGeometry x="1" width="20" height="20" relative="1" as="geometry">
            <mxPoint x="-27" y="7" as="offset" />
          </mxGeometry>
        </mxCell>
        <mxCell id="V3tWYPrJEWUXQkAfdmBx-38" value="«component»&lt;br&gt;«PSQL Service»&lt;div&gt;&lt;b&gt;postgresql&lt;/b&gt;&lt;/div&gt;" style="html=1;dropTarget=0;whiteSpace=wrap;" vertex="1" parent="1">
          <mxGeometry x="1535" y="357" width="130" height="70" as="geometry" />
        </mxCell>
        <mxCell id="V3tWYPrJEWUXQkAfdmBx-39" value="" style="shape=module;jettyWidth=8;jettyHeight=4;" vertex="1" parent="V3tWYPrJEWUXQkAfdmBx-38">
          <mxGeometry x="1" width="20" height="20" relative="1" as="geometry">
            <mxPoint x="-27" y="7" as="offset" />
          </mxGeometry>
        </mxCell>
        <mxCell id="V3tWYPrJEWUXQkAfdmBx-42" value="*" style="text;html=1;align=center;verticalAlign=middle;resizable=0;points=[];autosize=1;strokeColor=none;fillColor=none;" vertex="1" parent="1">
          <mxGeometry x="855" y="230" width="30" height="30" as="geometry" />
        </mxCell>
        <mxCell id="V3tWYPrJEWUXQkAfdmBx-44" style="edgeStyle=orthogonalEdgeStyle;rounded=0;orthogonalLoop=1;jettySize=auto;html=1;exitX=0;exitY=0;exitDx=77.5;exitDy=0;exitPerimeter=0;entryX=0;entryY=0;entryDx=75;entryDy=200;entryPerimeter=0;endArrow=none;startFill=0;" edge="1" parent="1" source="V3tWYPrJEWUXQkAfdmBx-22" target="V3tWYPrJEWUXQkAfdmBx-35">
          <mxGeometry relative="1" as="geometry" />
        </mxCell>
        <mxCell id="V3tWYPrJEWUXQkAfdmBx-48" value="jdbc sink connectors" style="edgeLabel;html=1;align=center;verticalAlign=middle;resizable=0;points=[];" vertex="1" connectable="0" parent="V3tWYPrJEWUXQkAfdmBx-44">
          <mxGeometry x="-0.027" y="-1" relative="1" as="geometry">
            <mxPoint as="offset" />
          </mxGeometry>
        </mxCell>
        <mxCell id="V3tWYPrJEWUXQkAfdmBx-45" value="2" style="text;html=1;align=center;verticalAlign=middle;resizable=0;points=[];autosize=1;strokeColor=none;fillColor=none;" vertex="1" parent="1">
          <mxGeometry x="1470" y="250" width="30" height="30" as="geometry" />
        </mxCell>
        <mxCell id="V3tWYPrJEWUXQkAfdmBx-47" value="1" style="text;html=1;align=center;verticalAlign=middle;resizable=0;points=[];autosize=1;strokeColor=none;fillColor=none;" vertex="1" parent="1">
          <mxGeometry x="1095" y="220" width="30" height="30" as="geometry" />
        </mxCell>
        <mxCell id="V3tWYPrJEWUXQkAfdmBx-49" style="edgeStyle=orthogonalEdgeStyle;rounded=0;orthogonalLoop=1;jettySize=auto;html=1;exitX=0;exitY=0;exitDx=70;exitDy=0;exitPerimeter=0;entryX=0.763;entryY=0.997;entryDx=0;entryDy=0;entryPerimeter=0;endArrow=none;startFill=0;" edge="1" parent="1" source="V3tWYPrJEWUXQkAfdmBx-17" target="V3tWYPrJEWUXQkAfdmBx-35">
          <mxGeometry relative="1" as="geometry">
            <Array as="points">
              <mxPoint x="1460" y="770" />
              <mxPoint x="1460" y="282" />
              <mxPoint x="1501" y="282" />
            </Array>
          </mxGeometry>
        </mxCell>
        <mxCell id="V3tWYPrJEWUXQkAfdmBx-50" value="1" style="text;html=1;align=center;verticalAlign=middle;resizable=0;points=[];autosize=1;strokeColor=none;fillColor=none;" vertex="1" parent="1">
          <mxGeometry x="1095" y="740" width="30" height="30" as="geometry" />
        </mxCell>
        <mxCell id="V3tWYPrJEWUXQkAfdmBx-51" value="&amp;lt;&amp;lt;execution environment&amp;gt;&amp;gt;&lt;div&gt;containerd&lt;/div&gt;&lt;div&gt;&lt;br&gt;&lt;/div&gt;" style="verticalAlign=top;align=left;spacingTop=8;spacingLeft=2;spacingRight=12;shape=cube;size=10;direction=south;fontStyle=4;html=1;whiteSpace=wrap;" vertex="1" parent="1">
          <mxGeometry x="930" y="450" width="210" height="130" as="geometry" />
        </mxCell>
        <mxCell id="V3tWYPrJEWUXQkAfdmBx-56" style="edgeStyle=orthogonalEdgeStyle;rounded=0;orthogonalLoop=1;jettySize=auto;html=1;exitX=0.5;exitY=1;exitDx=0;exitDy=0;entryX=0.5;entryY=0;entryDx=0;entryDy=0;dashed=1;endArrow=block;endFill=1;" edge="1" parent="1" source="V3tWYPrJEWUXQkAfdmBx-52" target="V3tWYPrJEWUXQkAfdmBx-54">
          <mxGeometry relative="1" as="geometry" />
        </mxCell>
        <mxCell id="V3tWYPrJEWUXQkAfdmBx-52" value="«component»&lt;br&gt;&lt;b&gt;bookkeeper&lt;/b&gt;" style="html=1;dropTarget=0;whiteSpace=wrap;" vertex="1" parent="1">
          <mxGeometry x="962.5" y="500" width="140" height="70" as="geometry" />
        </mxCell>
        <mxCell id="V3tWYPrJEWUXQkAfdmBx-53" value="" style="shape=module;jettyWidth=8;jettyHeight=4;" vertex="1" parent="V3tWYPrJEWUXQkAfdmBx-52">
          <mxGeometry x="1" width="20" height="20" relative="1" as="geometry">
            <mxPoint x="-27" y="7" as="offset" />
          </mxGeometry>
        </mxCell>
        <mxCell id="V3tWYPrJEWUXQkAfdmBx-54" value="«component»&lt;br&gt;«apache/pulsar»&lt;br&gt;&lt;div&gt;bookie&lt;/div&gt;" style="html=1;dropTarget=0;whiteSpace=wrap;" vertex="1" parent="1">
          <mxGeometry x="962.5" y="600" width="140" height="70" as="geometry" />
        </mxCell>
        <mxCell id="V3tWYPrJEWUXQkAfdmBx-55" value="" style="shape=module;jettyWidth=8;jettyHeight=4;" vertex="1" parent="V3tWYPrJEWUXQkAfdmBx-54">
          <mxGeometry x="1" width="20" height="20" relative="1" as="geometry">
            <mxPoint x="-27" y="7" as="offset" />
          </mxGeometry>
        </mxCell>
        <mxCell id="V3tWYPrJEWUXQkAfdmBx-57" value="&amp;lt;&amp;lt;execution environment&amp;gt;&amp;gt;&lt;div&gt;containerd&lt;/div&gt;&lt;div&gt;&lt;br&gt;&lt;/div&gt;" style="verticalAlign=top;align=left;spacingTop=8;spacingLeft=2;spacingRight=12;shape=cube;size=10;direction=south;fontStyle=4;html=1;whiteSpace=wrap;" vertex="1" parent="1">
          <mxGeometry x="1185" y="450" width="210" height="130" as="geometry" />
        </mxCell>
        <mxCell id="V3tWYPrJEWUXQkAfdmBx-58" style="edgeStyle=orthogonalEdgeStyle;rounded=0;orthogonalLoop=1;jettySize=auto;html=1;exitX=0.5;exitY=1;exitDx=0;exitDy=0;entryX=0.5;entryY=0;entryDx=0;entryDy=0;dashed=1;endArrow=block;endFill=1;" edge="1" parent="1" source="V3tWYPrJEWUXQkAfdmBx-59" target="V3tWYPrJEWUXQkAfdmBx-61">
          <mxGeometry relative="1" as="geometry" />
        </mxCell>
        <mxCell id="V3tWYPrJEWUXQkAfdmBx-59" value="«component»&lt;br&gt;&lt;b&gt;zookeeper&lt;/b&gt;" style="html=1;dropTarget=0;whiteSpace=wrap;" vertex="1" parent="1">
          <mxGeometry x="1217.5" y="500" width="140" height="70" as="geometry" />
        </mxCell>
        <mxCell id="V3tWYPrJEWUXQkAfdmBx-60" value="" style="shape=module;jettyWidth=8;jettyHeight=4;" vertex="1" parent="V3tWYPrJEWUXQkAfdmBx-59">
          <mxGeometry x="1" width="20" height="20" relative="1" as="geometry">
            <mxPoint x="-27" y="7" as="offset" />
          </mxGeometry>
        </mxCell>
        <mxCell id="V3tWYPrJEWUXQkAfdmBx-61" value="«component»&lt;br&gt;&lt;div&gt;«apache/pulsar»&lt;br&gt;zookeeper&lt;/div&gt;" style="html=1;dropTarget=0;whiteSpace=wrap;" vertex="1" parent="1">
          <mxGeometry x="1217.5" y="600" width="140" height="70" as="geometry" />
        </mxCell>
        <mxCell id="V3tWYPrJEWUXQkAfdmBx-62" value="" style="shape=module;jettyWidth=8;jettyHeight=4;" vertex="1" parent="V3tWYPrJEWUXQkAfdmBx-61">
          <mxGeometry x="1" width="20" height="20" relative="1" as="geometry">
            <mxPoint x="-27" y="7" as="offset" />
          </mxGeometry>
        </mxCell>
        <mxCell id="V3tWYPrJEWUXQkAfdmBx-63" style="edgeStyle=orthogonalEdgeStyle;rounded=0;orthogonalLoop=1;jettySize=auto;html=1;exitX=0;exitY=0;exitDx=70;exitDy=210;exitPerimeter=0;entryX=0;entryY=0;entryDx=60;entryDy=0;entryPerimeter=0;endArrow=none;startFill=0;" edge="1" parent="1" source="V3tWYPrJEWUXQkAfdmBx-57" target="V3tWYPrJEWUXQkAfdmBx-51">
          <mxGeometry relative="1" as="geometry">
            <Array as="points">
              <mxPoint x="1160" y="520" />
              <mxPoint x="1160" y="510" />
            </Array>
          </mxGeometry>
        </mxCell>
        <mxCell id="V3tWYPrJEWUXQkAfdmBx-64" style="edgeStyle=orthogonalEdgeStyle;rounded=0;orthogonalLoop=1;jettySize=auto;html=1;exitX=0.715;exitY=-0.005;exitDx=0;exitDy=0;exitPerimeter=0;entryX=0;entryY=0;entryDx=0;entryDy=100;entryPerimeter=0;endArrow=none;startFill=0;" edge="1" parent="1" source="V3tWYPrJEWUXQkAfdmBx-22" target="V3tWYPrJEWUXQkAfdmBx-57">
          <mxGeometry relative="1" as="geometry" />
        </mxCell>
      </root>
    </mxGraphModel>
  </diagram>
</mxfile>
